<?xml version="1.0" encoding="UTF-8"?>
<svg version="1.1" xmlns="http://www.w3.org/2000/svg" width="211" height="99">
<path d="M0 0 C0 0.66 0 1.32 0 2 C1.65 2 3.3 2 5 2 C4.34 2.99 3.68 3.98 3 5 C2.34 5 1.68 5 1 5 C1 5.66 1 6.32 1 7 C4.22577342 8.73090281 7.14222764 10.03857021 10.6875 11 C13.78989695 11.93657266 15.15819649 12.39980681 17 15 C17 15.66 17 16.32 17 17 C17.58394531 17.24105469 18.16789062 17.48210938 18.76953125 17.73046875 C21.42852142 19.24390449 22.81772293 20.89923025 24.6875 23.3125 C25.28949219 24.07175781 25.89148438 24.83101562 26.51171875 25.61328125 C28.08486707 28.13609916 28.46788935 30.1106889 29 33 C29.66 33.33 30.32 33.66 31 34 C31.05422947 35.4370809 31.09289723 36.87475462 31.125 38.3125 C31.14820312 39.11300781 31.17140625 39.91351563 31.1953125 40.73828125 C31 43 31 43 29 46 C29.25330078 46.89332031 29.25330078 46.89332031 29.51171875 47.8046875 C30.23620036 51.06195683 29.08499774 53.08742474 27.8125 56.125 C27.38582031 57.17945313 26.95914063 58.23390625 26.51953125 59.3203125 C24.89168407 62.19101473 24.09979145 63.02491997 21 64 C20.01 64 19.02 64 18 64 C17.9071875 65.0828125 17.9071875 65.0828125 17.8125 66.1875 C16.72942362 69.93661056 15.24488739 71.94779196 12 74 C0.29111902 78.9065787 -8.69415125 79.09690941 -20.62890625 75.265625 C-23 74 -23 74 -23.83984375 71.859375 C-23.89269531 71.24578125 -23.94554688 70.6321875 -24 70 C-26.01822917 70.09765625 -28.03645833 70.1953125 -30.0546875 70.29296875 C-30.69664063 70.19628906 -31.33859375 70.09960938 -32 70 C-34 67 -34 67 -34 65 C-34.66 64.67 -35.32 64.34 -36 64 C-36.99 65.65 -37.98 67.3 -39 69 C-40.09658936 65.71023192 -39.79953138 64.28696233 -39 61 C-40.1446875 61.7734375 -40.1446875 61.7734375 -41.3125 62.5625 C-42.199375 63.036875 -43.08625 63.51125 -44 64 C-44.99 63.67 -45.98 63.34 -47 63 C-45.02 61.68 -43.04 60.36 -41 59 C-43.64 58.01 -46.28 57.02 -49 56 C-49 55.67 -49 55.34 -49 55 C-45.33333333 55 -41.66666667 55 -38 55 C-38 54.34 -38 53.68 -38 53 C-39.32 52.67 -40.64 52.34 -42 52 C-42 51.01 -42 50.02 -42 49 C-42.05800781 48.0925 -42.11601563 47.185 -42.17578125 46.25 C-42.52508719 37.94649875 -41.05931321 32.23427605 -37 25 C-38.32 25.33 -39.64 25.66 -41 26 C-37.85621294 21.47294663 -34.83991063 19.41995531 -30 17 C-29.34 17 -28.68 17 -28 17 C-28.33 17.66 -28.66 18.32 -29 19 C-30.28687011 22.86061033 -30.13757618 25.94150283 -30 30 C-31.65 29.67 -33.3 29.34 -35 29 C-35.495 31.475 -35.495 31.475 -36 34 C-35.67 34 -35.34 34 -35 34 C-35.14308594 35.21236328 -35.14308594 35.21236328 -35.2890625 36.44921875 C-35.45535156 38.05216797 -35.45535156 38.05216797 -35.625 39.6875 C-35.74101563 40.74324219 -35.85703125 41.79898438 -35.9765625 42.88671875 C-36.0010326 46.13716346 -35.40852563 48.10230796 -34 51 C-32.35 49.35 -30.7 47.7 -29 46 C-29.875 50.75 -29.875 50.75 -31 53 C-29.6078125 52.2265625 -29.6078125 52.2265625 -28.1875 51.4375 C-25 50 -25 50 -22 51 C-23.65 52.65 -25.3 54.3 -27 56 C-25.02 56.66 -23.04 57.32 -21 58 C-21 58.33 -21 58.66 -21 59 C-23.64 59.33 -26.28 59.66 -29 60 C-25.27612996 63.6037452 -22.24840612 64.60263383 -17.31640625 65.48828125 C-15.03769128 65.9916736 -13.22876912 66.76075333 -11.125 67.75 C-5.92929715 69.76423868 -1.15960266 68.77109765 4 67 C6.52758687 65.59367347 8.81443317 64.07701624 11.125 62.33984375 C13 61 13 61 16 60 C16.56058477 58.26566343 16.56058477 58.26566343 17 56 C17.53625 54.845 18.0725 53.69 18.625 52.5 C20.10271882 48.73853391 19.89000506 48.5461139 19 45 C19.45375 43.88625 19.9075 42.7725 20.375 41.625 C21.98617532 35.92143937 18.71773088 31.21547825 16.1875 26.26953125 C13.18335431 21.77940636 9.62592419 17.89770332 4.125 16.6875 C3.09375 16.460625 2.0625 16.23375 1 16 C1 15.01 1 14.02 1 13 C0.01 12.67 -0.98 12.34 -2 12 C-1.505 13.485 -1.505 13.485 -1 15 C-1.59167969 14.90460937 -2.18335938 14.80921875 -2.79296875 14.7109375 C-9.19461191 13.66298798 -9.19461191 13.66298798 -15 16 C-15.89830839 19.05272465 -15.89830839 19.05272465 -16 22 C-18.64 21.67 -21.28 21.34 -24 21 C-23.67 19.68 -23.34 18.36 -23 17 C-22.34 17 -21.68 17 -21 17 C-20.67 16.34 -20.34 15.68 -20 15 C-21.32 14.67 -22.64 14.34 -24 14 C-24 14.66 -24 15.32 -24 16 C-24.99 15.67 -25.98 15.34 -27 15 C-27.6875 12.9375 -27.6875 12.9375 -28 11 C-26.88625 10.5875 -25.7725 10.175 -24.625 9.75 C-23.08262627 9.16853875 -21.54101988 8.58503986 -20 8 C-19.17113281 7.68675781 -18.34226562 7.37351562 -17.48828125 7.05078125 C-13.5100465 5.50944374 -9.73064492 3.94005277 -6.0625 1.75 C-3 0 -3 0 0 0 Z M15 18 C15.66 18.66 16.32 19.32 17 20 C17 19.34 17 18.68 17 18 C16.34 18 15.68 18 15 18 Z M28 39 C29 41 29 41 29 41 Z M22 42 C22.33 42.99 22.66 43.98 23 45 C23.33 44.01 23.66 43.02 24 42 C23.34 42 22.68 42 22 42 Z M-39 47 C-38 50 -38 50 -38 50 Z M-38 51 C-37 53 -37 53 -37 53 Z M-8 71 C-8.66 71.66 -9.32 72.32 -10 73 C-8.02 73 -6.04 73 -4 73 C-5.32 72.34 -6.64 71.68 -8 71 Z M0 73 C0.33 73.99 0.66 74.98 1 76 C1 75.01 1 74.02 1 73 C0.67 73 0.34 73 0 73 Z " fill="#D9E3FB" transform="translate(70,12)"/>
<path d="M0 0 C1.79323253 0.28187936 3.58457126 0.5758281 5.375 0.875 C6.37273437 1.03742187 7.37046875 1.19984375 8.3984375 1.3671875 C11 2 11 2 13 4 C13 4.33 13 4.66 13 5 C18.61 5.33 24.22 5.66 30 6 C29.67 6.99 29.34 7.98 29 9 C32.82751165 11.52153655 36.77473615 11.2449577 41.1875 11.3125 C51.01625269 11.63528334 61.12608384 13.56304192 70 18 C69 21 69 21 67 22 C72.73115109 25.59523599 77.21017493 27.62964591 84 28 C84 28.66 84 29.32 84 30 C77.88518624 31.72809954 74.96291002 30.2284426 69.51171875 27.21484375 C65.95732164 25.49568745 62.91641803 25.21757878 59 25 C62.35878432 29.25970824 65.87043209 29.87019419 71 30.5625 C79.88267727 31.80961501 79.88267727 31.80961501 83 35 C83 35.66 83 36.32 83 37 C82.1646875 36.68804687 81.329375 36.37609375 80.46875 36.0546875 C75.59326603 34.57227683 70.71482 34.24104988 65.65625 33.7578125 C61.60208733 32.91752665 59.28714701 31.46296438 56 29 C54.6808418 28.30570621 53.35350594 27.62469505 52 27 C52.495 28.98 52.495 28.98 53 31 C52.50113281 30.5153125 52.00226563 30.030625 51.48828125 29.53125 C48.13260183 27.46621651 45.01531595 27.54948239 41.1875 27.5 C34.54194211 27.41264055 29.1728129 26.73662581 23.92578125 22.2109375 C23.39339844 21.60507812 22.86101562 20.99921875 22.3125 20.375 C19.97100044 17.72614369 18.52804924 16.56879225 15 16 C15.1228914 21.51862424 15.1228914 21.51862424 17.875 25.9375 C21.33164471 27.66582236 23.75050219 28.08124436 27.54296875 27.81640625 C39.41223431 27.23110747 47.64439411 28.04611299 57.8828125 34.25 C60.98551873 36.3263565 60.98551873 36.3263565 65 36 C65 36.66 65 37.32 65 38 C65.98226562 38.00386719 65.98226562 38.00386719 66.984375 38.0078125 C74.16544542 38.31209515 78.98106322 40.27905662 85.25 43.69921875 C88.83728288 45.39604432 91.12081922 45.5289792 95 45 C95 45.66 95 46.32 95 47 C91.22728699 48.73682824 89.58178276 49.1890794 85.5625 47.8828125 C83.7990625 47.01269531 83.7990625 47.01269531 82 46.125 C77.37206002 43.86177497 74.1807647 42.60512464 69 43 C69 43.99 69 44.98 69 46 C70.09699219 46.10957031 71.19398438 46.21914062 72.32421875 46.33203125 C73.77871516 46.49155666 75.23313863 46.65174813 76.6875 46.8125 C77.40873047 46.88275391 78.12996094 46.95300781 78.87304688 47.02539062 C83.2263772 47.52234614 86.46020879 48.20471554 90 51 C90.33 51.99 90.66 52.98 91 54 C89.97326172 53.52433594 89.97326172 53.52433594 88.92578125 53.0390625 C85.60249621 51.85883043 82.70245465 51.58802755 79.1875 51.375 C78.02605469 51.30023438 76.86460937 51.22546875 75.66796875 51.1484375 C74.78753906 51.09945312 73.90710938 51.05046875 73 51 C72.67 51.99 72.34 52.98 72 54 C70.515 53.01 70.515 53.01 69 52 C66.98384888 51.82751021 64.96049759 51.73331282 62.9375 51.6875 C54.85747982 51.18362346 49.38854048 48.32546896 42.8125 43.8125 C39.52580476 41.69440751 36.78166557 40.90759974 33 40 C33.495 41.98 33.495 41.98 34 44 C29.01150024 43.31495954 26.20476734 41.17758631 22.28125 38.1796875 C19.37816884 36.67843663 18.1132874 37.31695761 15 38 C11.40838724 36.63838278 9.64813562 34.41433252 8 31 C7.56137236 27.03177596 7.74682083 23.07775556 8.08276367 19.10644531 C8.51057473 12.62573024 6.92897916 9.10388524 3 4 C2.401875 3.175 1.80375 2.35 1.1875 1.5 C0.5996875 0.7575 0.5996875 0.7575 0 0 Z M28 16 C28.18828772 18.44480079 28.18828772 18.44480079 29 21 C32.46428411 23.44537702 36.11725895 23.39540327 40.25 23.625 C41.51328125 23.69976562 42.7765625 23.77453125 44.078125 23.8515625 C45.04234375 23.90054688 46.0065625 23.94953125 47 24 C38.98037728 15.73482664 38.98037728 15.73482664 28 16 Z M45 16 C45.66 17.65 46.32 19.3 47 21 C51.62 21 56.24 21 61 21 C53.61237366 15.37147568 53.61237366 15.37147568 45 16 Z M38 32 C37.67 33.32 37.34 34.64 37 36 C40.53253911 39.38534998 44.27775851 39.89595061 49 40 C52.35292371 39.79462148 55.67068502 39.44345384 59 39 C52.11963592 34.41309062 46.39865727 31.22234655 38 32 Z M59 39 C63 40 63 40 63 40 Z M51 42 C51.19471111 43.94999129 51.19471111 43.94999129 52 46 C55.23713626 48.15809084 57.92537239 48.21606256 61.75 48.125 C62.73484375 48.10695313 63.7196875 48.08890625 64.734375 48.0703125 C65.48203125 48.04710937 66.2296875 48.02390625 67 48 C62.77567578 43.43844818 62.77567578 43.43844818 56.96875 41.8828125 C54.97879557 41.87580562 52.98886215 41.9337046 51 42 Z " fill="#DBE2FD" transform="translate(93,33)"/>
<path d="M0 0 C14.85 0 29.7 0 45 0 C42.40752856 6.4811786 39.0818971 9.69839872 33 13 C33.99 13.66 34.98 14.32 36 15 C34.53171057 20.17935061 32.18508737 24.34373412 29.375 28.875 C28.95476562 29.56335938 28.53453125 30.25171875 28.1015625 30.9609375 C27.07307528 32.64391658 26.037279 34.32242532 25 36 C22.07726761 35.68402893 20.45261233 35.45736821 18.3503418 33.33300781 C16.62116182 30.34547503 16.65645436 28.36110363 16.70703125 24.921875 C16.71669922 23.76171875 16.72636719 22.6015625 16.73632812 21.40625 C16.76146484 20.1996875 16.78660156 18.993125 16.8125 17.75 C16.82603516 16.52796875 16.83957031 15.3059375 16.85351562 14.046875 C16.8888602 11.03080502 16.9382044 8.01562513 17 5 C13.37 5 9.74 5 6 5 C5.67 5.99 5.34 6.98 5 8 C1.99530649 5.40503742 1.63141204 4.0785301 0 0 Z M28 4 C28 5.98 28 7.96 28 10 C30.97 8.68 33.94 7.36 37 6 C33.23312136 4.11656068 31.97041037 3.77942165 28 4 Z M28 16 C28.33 17.32 28.66 18.64 29 20 C29 18.68 29 17.36 29 16 C28.67 16 28.34 16 28 16 Z " fill="#DDE6FD" transform="translate(41,40)"/>
<path d="M0 0 C0.49113281 0.15984375 0.98226562 0.3196875 1.48828125 0.484375 C4.30102654 1.06179705 7.02645297 1.12471144 9.890625 1.18945312 C20.53993201 1.47017465 31.36039882 3.18019941 41 8 C40 11 40 11 38 12 C43.73115109 15.59523599 48.21017493 17.62964591 55 18 C55 18.66 55 19.32 55 20 C48.88518624 21.72809954 45.96291002 20.2284426 40.51171875 17.21484375 C36.95732164 15.49568745 33.91641803 15.21757878 30 15 C33.35878432 19.25970824 36.87043209 19.87019419 42 20.5625 C50.88267727 21.80961501 50.88267727 21.80961501 54 25 C54 25.66 54 26.32 54 27 C53.1646875 26.68804687 52.329375 26.37609375 51.46875 26.0546875 C46.59326603 24.57227683 41.71482 24.24104988 36.65625 23.7578125 C32.57017413 22.91091216 30.31565356 21.48443122 27 19 C25.54619089 18.07617482 24.08850707 17.1583837 22.625 16.25 C21.93664062 15.82203125 21.24828125 15.3940625 20.5390625 14.953125 C20.03117187 14.63859375 19.52328125 14.3240625 19 14 C18.67 14.66 18.34 15.32 18 16 C16.54151786 14.54151786 15.10710956 13.05884521 13.6875 11.5625 C10.43802258 8.46416107 7.49830183 6.51078471 3.25 5.0625 C1 4 1 4 0.1875 1.875 C0.125625 1.25625 0.06375 0.6375 0 0 Z M16 6 C16.66 7.65 17.32 9.3 18 11 C22.62 11 27.24 11 32 11 C24.61237366 5.37147568 24.61237366 5.37147568 16 6 Z " fill="#E0E7FD" transform="translate(122,43)"/>
<path d="M0 0 C1.32 0.33 2.64 0.66 4 1 C3.01 2.32 2.02 3.64 1 5 C4.465 4.505 4.465 4.505 8 4 C8.33 5.32 8.66 6.64 9 8 C8.113125 7.79375 7.22625 7.5875 6.3125 7.375 C2.69331347 6.96528077 1.04181257 7.00109459 -2 9 C-2.89830839 12.05272465 -2.89830839 12.05272465 -3 15 C-5.64 14.67 -8.28 14.34 -11 14 C-10.67 12.68 -10.34 11.36 -10 10 C-9.34 10 -8.68 10 -8 10 C-7.67 9.34 -7.34 8.68 -7 8 C-8.32 7.67 -9.64 7.34 -11 7 C-11 7.66 -11 8.32 -11 9 C-11.99 8.67 -12.98 8.34 -14 8 C-14.6875 5.9375 -14.6875 5.9375 -15 4 C-13.35 3.67 -11.7 3.34 -10 3 C-10 3.99 -10 4.98 -10 6 C-5.65815798 5.81535634 -5.65815798 5.81535634 -2 4 C-3.65 4 -5.3 4 -7 4 C-6.67 3.34 -6.34 2.68 -6 2 C-3.911361 1.32624548 -2.19636905 1 0 1 C0 0.67 0 0.34 0 0 Z " fill="#D3DBF9" transform="translate(57,19)"/>
<path d="M0 0 C0 0.66 0 1.32 0 2 C1.65 2 3.3 2 5 2 C4.01 3.485 4.01 3.485 3 5 C2.34 5 1.68 5 1 5 C0.67 5.66 0.34 6.32 0 7 C0 6.34 0 5.68 0 5 C-5.01535052 5.32960216 -5.01535052 5.32960216 -9 8 C-12 9 -12 9 -15 9 C-16.33981486 9.3062434 -17.67511887 9.63451555 -19 10 C-17.68 10.33 -16.36 10.66 -15 11 C-15.33 11.66 -15.66 12.32 -16 13 C-18.31 13 -20.62 13 -23 13 C-23 12.01 -23 11.02 -23 10 C-18.22121051 7.09117161 -13.47180448 4.89778988 -8.234375 2.9296875 C-1.19327731 0 -1.19327731 0 0 0 Z " fill="#DCE5FE" transform="translate(70,12)"/>
<path d="M0 0 C0.33 0 0.66 0 1 0 C1.09785703 4.7949947 0.76054011 9.26775045 0 14 C-0.185625 15.299375 -0.37125 16.59875 -0.5625 17.9375 C-0.7790625 19.4534375 -0.7790625 19.4534375 -1 21 C-1.99 20.34 -2.98 19.68 -4 19 C-3.83242188 18.4534375 -3.66484375 17.906875 -3.4921875 17.34375 C-2.74264496 13.7744998 -3.08842493 10.28313686 -3.2578125 6.65625 C-2.95632457 3.55001069 -2.11267386 2.25068773 0 0 Z " fill="#DEE9FE" transform="translate(31,44)"/>
<path d="M0 0 C0.99 0.33 1.98 0.66 3 1 C3.144375 1.639375 3.28875 2.27875 3.4375 2.9375 C3.623125 3.618125 3.80875 4.29875 4 5 C5.31647119 5.69937532 6.65022151 6.36729133 8 7 C9 10 9 10 8.0625 12.1875 C7.711875 12.785625 7.36125 13.38375 7 14 C4.525 13.01 4.525 13.01 2 12 C2 11.34 2 10.68 2 10 C2.66 10 3.32 10 4 10 C4 8.68 4 7.36 4 6 C3.34 6 2.68 6 2 6 C0.61767557 4.37373596 -0.71937515 2.7074998 -2 1 C-1.34 0.67 -0.68 0.34 0 0 Z " fill="#D6E0FC" transform="translate(83,24)"/>
<path d="M0 0 C0.99 0 1.98 0 3 0 C4.10780209 3.42411555 4.1299591 4.71054563 2.625 8.0625 C2.08875 9.031875 1.5525 10.00125 1 11 C0.31363375 13.23525035 0.31363375 13.23525035 0 15 C-0.66 15 -1.32 15 -2 15 C-2 12.69 -2 10.38 -2 8 C-1.67 8 -1.34 8 -1 8 C-1.020625 6.865625 -1.04125 5.73125 -1.0625 4.5625 C-1 1 -1 1 0 0 Z " fill="#D6DFFB" transform="translate(66,61)"/>
<path d="M0 0 C3.4375 0.6875 3.4375 0.6875 5.4375 1.6875 C5.1075 2.6775 4.7775 3.6675 4.4375 4.6875 C2.375 5.375 2.375 5.375 0.4375 5.6875 C0.4375 5.0275 0.4375 4.3675 0.4375 3.6875 C-1.8725 3.6875 -4.1825 3.6875 -6.5625 3.6875 C-6.5625 3.0275 -6.5625 2.3675 -6.5625 1.6875 C-3.5625 -0.3125 -3.5625 -0.3125 0 0 Z " fill="#D2DCF7" transform="translate(78.5625,78.3125)"/>
<path d="M0 0 C1.32 0.66 2.64 1.32 4 2 C3.67 3.32 3.34 4.64 3 6 C-0.75 7.125 -0.75 7.125 -3 6 C-3 5.01 -3 4.02 -3 3 C-2.34 3 -1.68 3 -1 3 C-0.67 2.01 -0.34 1.02 0 0 Z " fill="#D3DDFB" transform="translate(94,38)"/>
<path d="M0 0 C0.33 0.99 0.66 1.98 1 3 C0.01 3 -0.98 3 -2 3 C-2.99 3.33 -3.98 3.66 -5 4 C-6.66621616 4.03874921 -8.33394172 4.0450286 -10 4 C-10 3.34 -10 2.68 -10 2 C-9.01 2 -8.02 2 -7 2 C-7 1.34 -7 0.68 -7 0 C-4.3333581 -1.33332095 -2.83319697 -0.67102033 0 0 Z " fill="#D1DDF7" transform="translate(73,84)"/>
<path d="M0 0 C1.67542976 0.28604898 3.34385343 0.61781233 5 1 C4.8125 3.875 4.8125 3.875 4 7 C1.4375 8.375 1.4375 8.375 -1 9 C-1 8.01 -1 7.02 -1 6 C-0.01 5.34 0.98 4.68 2 4 C1.16666667 1.83333333 1.16666667 1.83333333 -1 1 C-0.67 0.67 -0.34 0.34 0 0 Z " fill="#E2EBFE" transform="translate(81,77)"/>
<path d="M0 0 C4.2742558 1.5830577 6.26531794 4.50568404 9 8 C7.68 8 6.36 8 5 8 C4.67 7.01 4.34 6.02 4 5 C3.01 4.67 2.02 4.34 1 4 C1 3.34 1 2.68 1 2 C0.34 1.67 -0.32 1.34 -1 1 C-0.67 0.67 -0.34 0.34 0 0 Z " fill="#D3DEF8" transform="translate(37,70)"/>
<path d="M0 0 C0.99 0.33 1.98 0.66 3 1 C3.99 0.67 4.98 0.34 6 0 C6 2.31 6 4.62 6 7 C5.4121875 6.2265625 5.4121875 6.2265625 4.8125 5.4375 C3.9153125 4.7259375 3.9153125 4.7259375 3 4 C0.34533951 4.23043864 0.34533951 4.23043864 -2 5 C-1.125 1.125 -1.125 1.125 0 0 Z " fill="#D2D9F8" transform="translate(95,46)"/>
<path d="M0 0 C0.99 0.33 1.98 0.66 3 1 C3 1.99 3 2.98 3 4 C3.66 4 4.32 4 5 4 C4.67 5.32 4.34 6.64 4 8 C2.35 8.33 0.7 8.66 -1 9 C-0.67 6.03 -0.34 3.06 0 0 Z " fill="#E1E9FE" transform="translate(90,51)"/>
<path d="M0 0 C3.96 0 7.92 0 12 0 C12 0.66 12 1.32 12 2 C9.375 3.1875 9.375 3.1875 6 4 C2.625 2.625 2.625 2.625 0 1 C0 0.67 0 0.34 0 0 Z " fill="#DBE0F9" transform="translate(176,78)"/>
<path d="M0 0 C2.31 0.33 4.62 0.66 7 1 C7 1.66 7 2.32 7 3 C7.66 3.33 8.32 3.66 9 4 C7.02 4.99 7.02 4.99 5 6 C3.35 4.02 1.7 2.04 0 0 Z " fill="#DFE6FD" transform="translate(93,33)"/>
<path d="M0 0 C0.99 0.33 1.98 0.66 3 1 C3.6875 3.0625 3.6875 3.0625 4 5 C4.66 5 5.32 5 6 5 C6 6.65 6 8.3 6 10 C5.34 10 4.68 10 4 10 C4 8.68 4 7.36 4 6 C3.34 6 2.68 6 2 6 C0.61767557 4.37373596 -0.71937515 2.7074998 -2 1 C-1.34 0.67 -0.68 0.34 0 0 Z " fill="#CAD1F2" transform="translate(83,24)"/>
<path d="M0 0 C0.33 0 0.66 0 1 0 C1.25 6.625 1.25 6.625 -1 10 C-1.9765625 3.9453125 -1.9765625 3.9453125 -2 2 C-1.34 1.34 -0.68 0.68 0 0 Z " fill="#E9F3FE" transform="translate(31,44)"/>
<path d="M0 0 C0.66 0.33 1.32 0.66 2 1 C1.67 2.32 1.34 3.64 1 5 C-0.65 5.33 -2.3 5.66 -4 6 C-3.67 4.68 -3.34 3.36 -3 2 C-2.34 2 -1.68 2 -1 2 C-0.67 1.34 -0.34 0.68 0 0 Z " fill="#C9D4F1" transform="translate(50,27)"/>
<path d="M0 0 C3 2 3 2 3.6875 4.125 C3.790625 4.74375 3.89375 5.3625 4 6 C3.01 6 2.02 6 1 6 C-0.6875 4 -0.6875 4 -2 2 C-1.34 1.34 -0.68 0.68 0 0 Z " fill="#D0DDF6" transform="translate(82,26)"/>
<path d="M0 0 C2.97 0.495 2.97 0.495 6 1 C5.67 1.99 5.34 2.98 5 4 C3.02 3.34 1.04 2.68 -1 2 C-0.67 1.34 -0.34 0.68 0 0 Z " fill="#D8E3FB" transform="translate(155,73)"/>
<path d="M0 0 C0.66 0.33 1.32 0.66 2 1 C2.625 3.0625 2.625 3.0625 3 5 C0.03 4.505 0.03 4.505 -3 4 C-3 3.34 -3 2.68 -3 2 C-2.01 2 -1.02 2 0 2 C0 1.34 0 0.68 0 0 Z " fill="#DFE9FE" transform="translate(77,22)"/>
</svg>
